# xmcd CD database file
#
# Track frame offsets:
#	150
#	13989
#	28985
#	43687
#	58296
#	71258
#	86644
#	101682
#	115273
#	126519
#	139486
#	154321
#
# Disc length: 2247 seconds
#
# Revision: 0
# Processed by: cddbd v1.5.1PL2 Copyright (c) Steve Scherf et al.
# Submitted via: CDex 1.70beta1
#
DISCID=b708c50c
DTITLE=Various (Federale Verzekeringen) - Unforgettable Jazz
DYEAR=2005
DGENRE=Jazz
TTITLE0=C'est si bon - Louis Armstrong
TTITLE1=American Patrol - Glenn Miller
TTITLE2=Mona Lisa - Nat King Cole
TTITLE3=Petite Fleur - Sidney Bechet
TTITLE4=Rag Mop - Lionel Hampton
TTITLE5=La Vie En Rose - Louis Armstrong
TTITLE6=Perfidia - Glenn Miller
TTITLE7=Autumn Leaves - Stan Getz Quintet
TTITLE8=Goody Goody - Benny Goodman
TTITLE9=Blueberry Hill - Louis Armstrong
TTITLE10=Everybody Loves Somebody - Frank Sinatra
TTITLE11=Unforgettable - Nat King Cole
EXTD=YEAR: 2005
EXTT0=
EXTT1=
EXTT2=
EXTT3=
EXTT4=
EXTT5=
EXTT6=
EXTT7=
EXTT8=
EXTT9=
EXTT10=
EXTT11=
PLAYORDER=
